<svg xmlns="http://www.w3.org/2000/svg" width="29.619" height="29.619" viewBox="0 0 29.619 29.619">
  <g id="Group_7702" data-name="Group 7702" transform="translate(6642 -3566.432)">
    <g id="Ellipse_17" data-name="Ellipse 17" transform="translate(-6640.447 3568.426)" fill="#fff" stroke="#707070" stroke-width="1">
      <ellipse cx="13.589" cy="13.201" rx="13.589" ry="13.201" stroke="none"/>
      <ellipse cx="13.589" cy="13.201" rx="13.089" ry="12.701" fill="none"/>
    </g>
    <g id="noun_Check_Mark_228368" data-name="noun_Check Mark_228368" transform="translate(-6642 3566.432)">
      <g id="Group_1391" data-name="Group 1391" transform="translate(0 0)">
        <path id="Path_4028" data-name="Path 4028" d="M19.809,5A14.809,14.809,0,1,0,34.619,19.809,14.809,14.809,0,0,0,19.809,5Zm8.279,7.374a1.485,1.485,0,0,1,1.059.423,1.829,1.829,0,0,1-.233,2.56l-11.17,11.17c-.043.043-.087.083-.132.121s-.065.075-.1.111a1.642,1.642,0,0,1-2.327,0l-4.654-4.654a1.646,1.646,0,0,1,2.327-2.327l3.491,3.49L26.588,13.03A2.143,2.143,0,0,1,28.089,12.374Z" transform="translate(-5 -5)" fill="#148941"/>
      </g>
    </g>
  </g>
</svg>
